<svg xmlns="http://www.w3.org/2000/svg" viewBox="0 0 512 512">
  <rect width="512" height="512" rx="128" fill="#19302b"/>
  <circle cx="384" cy="128" r="56" fill="#f4b63f"/>
  <path d="M384 72c-32.8 0-59.2 26.4-59.2 59.2 0 41.6 59.2 96.8 59.2 96.8s59.2-55.2 59.2-96.8C443.2 98.4 416.8 72 384 72Zm0 81.6a22.4 22.4 0 1 1 0-44.8 22.4 22.4 0 0 1 0 44.8Z" fill="#2f855f"/>
  <rect x="96" y="88" width="200" height="272" rx="32" fill="#ffffff" transform="rotate(-8 196 224)"/>
  <rect x="144" y="144" width="200" height="272" rx="32" fill="#e9f7ef" stroke="#ffffff" stroke-width="24" transform="rotate(8 244 280)"/>
  <path d="M184 304h176v72H184z" fill="#2f855f" transform="rotate(8 272 340)"/>
  <path d="M192 304 240 248l40 40 24-32 48 56" fill="none" stroke="#19302b" stroke-width="20" stroke-linecap="round" stroke-linejoin="round"/>
  <path d="M152 400h144" stroke="#f4b63f" stroke-width="32" stroke-linecap="round"/>
  <path d="M336 272h64l-24-24m24 24-24 24" stroke="#ffffff" stroke-width="24" stroke-linecap="round" stroke-linejoin="round"/>
  <path d="M176 176h-64l24-24m-24 24 24 24" stroke="#ffffff" stroke-width="24" stroke-linecap="round" stroke-linejoin="round"/>
</svg>
